<svg width="294" height="32" viewBox="0 0 294 32" fill="none" xmlns="http://www.w3.org/2000/svg">
<path d="M243.911 18.2076C244.038 16.801 244.024 15.3943 243.871 13.9876C243.311 8.99431 240.881 5.94765 236.581 4.84765C236.428 4.80794 236.293 4.72572 236.199 4.61471C236.104 4.50369 236.055 4.37059 236.061 4.23765L236.161 0.477637C236.162 0.412764 236.177 0.348814 236.206 0.289648C236.235 0.230482 236.277 0.177342 236.329 0.133414C236.381 0.089485 236.443 0.0556791 236.51 0.0340635C236.578 0.012448 236.649 0.00347149 236.721 0.00765058C243.208 0.440984 247.461 3.64097 249.481 9.60764C250.508 12.6476 250.588 16.0376 249.721 19.7776C248.114 26.7243 243.824 30.6876 236.851 31.6676C236.771 31.6796 236.689 31.6784 236.611 31.664C236.533 31.6497 236.461 31.6225 236.4 31.5844C236.339 31.5463 236.291 31.4983 236.258 31.4436C236.225 31.3889 236.209 31.3288 236.211 31.2676L236.221 27.6177C236.22 27.4676 236.277 27.3163 236.382 27.1841C236.488 27.0518 236.637 26.9449 236.811 26.8776C241.178 25.2443 243.544 22.3543 243.911 18.2076Z" fill="black"/>
<path d="M224.981 28.8576C219.674 24.1843 217.984 18.3043 219.911 11.2176C221.658 4.77095 225.951 1.03429 232.791 0.00762584C232.883 -0.00676146 232.978 -0.000744 233.068 0.0252803C233.158 0.0513045 233.241 0.0967125 233.312 0.158413C233.383 0.220114 233.441 0.296658 233.48 0.382809C233.52 0.46896 233.54 0.562694 233.541 0.65762V4.03762C233.54 4.2228 233.481 4.40263 233.371 4.55038C233.261 4.69813 233.107 4.80589 232.931 4.85762C230.498 5.58428 228.768 6.86095 227.741 8.68762C224.774 13.9943 224.811 19.011 227.851 23.7376C228.858 25.3043 230.528 26.3543 232.861 26.8876C233.011 26.9198 233.148 26.9924 233.253 27.0958C233.359 27.1992 233.427 27.3288 233.451 27.4676C233.684 28.741 233.654 30.0043 233.361 31.2576C233.327 31.3926 233.244 31.5113 233.127 31.5934C233.01 31.6755 232.867 31.7159 232.721 31.7076C229.468 31.4876 226.888 30.5376 224.981 28.8576Z" fill="black"/>
<path d="M18.3709 15.2776C21.5242 16.451 23.0909 18.6676 23.0709 21.9276C23.0642 23.9943 22.4909 25.7509 21.3509 27.1976C20.1576 28.7109 18.4909 29.7643 16.3509 30.3576C13.7309 31.091 11.2709 31.3576 8.97091 31.1576C8.83565 31.1474 8.70944 31.0857 8.61829 30.9853C8.52713 30.8848 8.47797 30.7532 8.48091 30.6176L8.58091 27.1076C8.58337 27.0436 8.59886 26.9808 8.62648 26.9229C8.6541 26.8649 8.6933 26.813 8.74175 26.7701C8.79021 26.7272 8.84694 26.6943 8.90862 26.6733C8.9703 26.6522 9.03568 26.6435 9.10091 26.6476C11.6209 26.7943 13.6209 26.3643 15.1009 25.3576C16.7809 24.2243 17.3142 22.8076 16.7009 21.1076C16.2542 19.8743 15.3242 18.9976 13.9109 18.4776C12.4709 17.9443 10.9476 17.761 9.34091 17.9276C9.25998 17.9348 9.17846 17.9297 9.10165 17.9125C9.02483 17.8952 8.95444 17.8664 8.89504 17.8277C8.83563 17.7891 8.78854 17.7415 8.75682 17.688C8.7251 17.6346 8.70946 17.5766 8.71091 17.5176L8.72091 13.8876C8.72198 13.7522 8.78267 13.6218 8.89053 13.5232C8.99839 13.4246 9.14524 13.3654 9.30091 13.3576C10.7476 13.271 11.9709 12.991 12.9709 12.5176C14.1176 11.9643 14.8176 11.041 15.0709 9.74762C15.3709 8.18762 14.8942 6.97096 13.6409 6.09763C12.8942 5.57096 11.7642 5.26095 10.2509 5.16762C7.33758 4.99429 4.20758 4.96429 0.860909 5.07762C0.779717 5.08047 0.69881 5.0692 0.622933 5.04447C0.547057 5.01973 0.477738 4.98203 0.419053 4.93359C0.360368 4.88516 0.313498 4.82696 0.28119 4.76239C0.248881 4.69783 0.231788 4.6282 0.230912 4.55762L0.210908 0.837617C0.209476 0.775225 0.224719 0.713204 0.255738 0.655152C0.286757 0.5971 0.332935 0.544194 0.391579 0.499512C0.450224 0.454831 0.52016 0.419273 0.597306 0.394913C0.674453 0.370553 0.757265 0.35787 0.840913 0.357621C5.89425 0.317621 9.87758 0.380957 12.7909 0.547623C14.4909 0.647623 16.1042 1.07429 17.6309 1.82762C19.2442 2.62762 20.3409 3.76762 20.9209 5.24762C22.0742 8.23429 21.1542 11.2576 18.1609 14.3176C18.0933 14.3875 18.044 14.4731 18.0174 14.5666C17.9908 14.6602 17.9878 14.7589 18.0086 14.8539C18.0294 14.9489 18.0733 15.0373 18.1366 15.1113C18.1998 15.1852 18.2803 15.2423 18.3709 15.2776Z" fill="black"/>
<path d="M59.0309 0.547607H40.0509C39.9073 0.547607 39.7909 0.664008 39.7909 0.807602V5.04761C39.7909 5.1912 39.9073 5.3076 40.0509 5.3076H59.0309C59.1745 5.3076 59.2909 5.1912 59.2909 5.04761V0.807602C59.2909 0.664008 59.1745 0.547607 59.0309 0.547607Z" fill="black"/>
<path d="M94.2309 25.3576C91.5642 17.351 88.9675 9.3243 86.4409 1.27763C86.42 1.21136 86.4127 1.14124 86.4195 1.07281C86.4263 1.00439 86.447 0.939507 86.4799 0.883286C86.5129 0.827064 86.5572 0.78104 86.6094 0.748825C86.6617 0.71661 86.7204 0.69908 86.7809 0.697632L91.3909 0.647644C91.5871 0.648405 91.7811 0.718147 91.9459 0.847183C92.1108 0.97622 92.2384 1.15814 92.3109 1.36765L102.381 30.5776C102.404 30.6408 102.412 30.7086 102.407 30.7751C102.401 30.8417 102.38 30.9051 102.347 30.96C102.313 31.0149 102.268 31.0597 102.215 31.0906C102.162 31.1215 102.102 31.1377 102.041 31.1376L96.7209 31.1877C96.5827 31.1875 96.4435 31.1347 96.322 31.0363C96.2004 30.938 96.1023 30.7989 96.0409 30.6376C95.6942 29.711 95.0909 27.951 94.2309 25.3576Z" fill="black"/>
<path d="M121.481 29.6076C118.514 27.361 117.068 24.1743 117.141 20.0476C117.241 13.9676 117.291 7.68429 117.291 1.19763C117.291 1.1193 117.305 1.04175 117.333 0.969506C117.361 0.897264 117.402 0.831784 117.453 0.776864C117.504 0.721945 117.565 0.678691 117.631 0.649636C117.698 0.620581 117.769 0.6063 117.841 0.607629L122.861 0.667626C122.925 0.668736 122.989 0.684381 123.048 0.713647C123.107 0.742913 123.16 0.785238 123.205 0.838189C123.25 0.891141 123.284 0.95368 123.308 1.02223C123.331 1.09077 123.342 1.16397 123.341 1.23763C123.108 10.2043 123.174 16.891 123.541 21.2976C123.774 24.1243 125.258 25.9343 127.991 26.7276C128.146 26.7732 128.285 26.8537 128.394 26.9609C128.503 27.0681 128.578 27.1981 128.611 27.3376C128.951 28.6443 128.954 29.951 128.621 31.2576C128.583 31.3944 128.499 31.5149 128.381 31.5999C128.264 31.685 128.119 31.7299 127.971 31.7276C125.391 31.641 123.228 30.9343 121.481 29.6076Z" fill="black"/>
<path d="M140.291 27.0676C138.258 29.9409 135.488 31.4509 131.981 31.5976C131.907 31.6005 131.834 31.5901 131.765 31.5671C131.696 31.544 131.632 31.5087 131.578 31.4631C131.524 31.4176 131.481 31.3627 131.451 31.3017C131.42 31.2407 131.403 31.1748 131.401 31.1076L131.311 27.3576C131.304 27.2259 131.355 27.0936 131.454 26.9839C131.552 26.8741 131.693 26.794 131.851 26.7576C134.651 26.1243 136.214 24.471 136.541 21.7976C136.821 19.4776 136.924 12.581 136.851 1.10762C136.851 0.969708 136.905 0.837448 137 0.739929C137.096 0.64241 137.226 0.587616 137.361 0.587616L141.801 0.567627C141.991 0.567702 142.174 0.644025 142.31 0.780365C142.447 0.916705 142.526 1.10229 142.531 1.29762C142.631 8.05096 142.551 14.4676 142.291 20.5476C142.178 23.1543 141.511 25.3276 140.291 27.0676Z" fill="black"/>
<path d="M180.731 0.547607H157.351C157.18 0.547607 157.041 0.686397 157.041 0.857605V4.9776C157.041 5.14881 157.18 5.28761 157.351 5.28761H180.731C180.902 5.28761 181.041 5.14881 181.041 4.9776V0.857605C181.041 0.686397 180.902 0.547607 180.731 0.547607Z" fill="black"/>
<path d="M202.291 0.547607H196.811C196.662 0.547607 196.541 0.668495 196.541 0.817612V31.0176C196.541 31.1667 196.662 31.2876 196.811 31.2876H202.291C202.44 31.2876 202.561 31.1667 202.561 31.0176V0.817612C202.561 0.668495 202.44 0.547607 202.291 0.547607Z" fill="black"/>
<path d="M285.961 30.6876L267.551 1.2276C267.344 0.894267 267.421 0.724272 267.781 0.717606L273.611 0.667603C273.748 0.668081 273.89 0.713385 274.023 0.799179C274.157 0.884974 274.276 1.00839 274.371 1.15761L292.931 30.7576C293.138 31.0909 293.051 31.2576 292.671 31.2576L286.731 31.1676C286.584 31.1647 286.437 31.1193 286.302 31.0354C286.167 30.9515 286.05 30.8319 285.961 30.6876Z" fill="black"/>
<path d="M287.641 15.2876C287.481 10.561 287.464 5.83429 287.591 1.10762C287.594 0.968869 287.648 0.836686 287.744 0.739456C287.839 0.642226 287.967 0.587702 288.101 0.587616L292.431 0.557617C292.595 0.557617 292.753 0.626102 292.869 0.748001C292.986 0.8699 293.051 1.03524 293.051 1.20763L293.201 24.9376C293.208 26.1843 292.881 26.2843 292.221 25.2376C291.014 23.331 289.894 21.4676 288.861 19.6476C288.101 18.3076 287.694 16.8543 287.641 15.2876Z" fill="black"/>
<path d="M84.1109 19.5076L89.0309 19.5476C89.191 19.5505 89.3432 19.5924 89.4668 19.6676C89.5903 19.7428 89.6791 19.8476 89.7209 19.9676L90.9309 23.4876C90.9494 23.544 90.9519 23.6038 90.9384 23.6624C90.9248 23.721 90.8956 23.7768 90.8529 23.8253C90.8102 23.8738 90.7552 23.9138 90.6924 23.9419C90.6296 23.9701 90.5606 23.9858 90.4909 23.9876L82.6009 24.1076C82.4546 24.1078 82.3122 24.1533 82.1938 24.2376C82.0754 24.3219 81.9869 24.4408 81.9409 24.5776C81.4942 25.851 81.0476 27.121 80.6009 28.3876C80.5876 28.441 80.4709 28.931 80.2509 29.8576C79.9842 30.9576 79.2742 31.491 78.1209 31.4576C77.0676 31.431 76.3509 31.4343 75.9709 31.4676C74.3176 31.621 73.7776 31.0376 74.3509 29.7176C74.7576 28.7643 74.9709 28.2543 74.9909 28.1876C77.8642 19.541 80.7776 10.9676 83.7309 2.46762C83.9442 1.86096 84.1509 1.86428 84.3509 2.47762C84.9509 4.30428 85.5009 6.14429 86.0009 7.99762C86.3742 9.36429 86.3709 10.731 85.9909 12.0976C85.3309 14.431 84.5909 16.7376 83.7709 19.0176C83.752 19.0725 83.7464 19.1311 83.7544 19.1886C83.7624 19.2462 83.7838 19.301 83.8169 19.3487C83.85 19.3964 83.8938 19.4356 83.9449 19.4632C83.996 19.4909 84.0529 19.5061 84.1109 19.5076Z" fill="black"/>
<path d="M272.441 16.2376C272.608 21.071 272.624 25.9009 272.491 30.7276C272.488 30.8759 272.433 31.0171 272.337 31.1203C272.241 31.2234 272.113 31.28 271.981 31.2776L267.731 31.1776C267.594 31.1748 267.463 31.1138 267.366 31.0075C267.269 30.9012 267.213 30.7578 267.211 30.6076L267.061 6.29762C267.054 5.60429 267.241 5.55095 267.621 6.13762C268.928 8.12428 270.134 10.081 271.241 12.0076C271.988 13.3076 272.388 14.7176 272.441 16.2376Z" fill="black"/>
<path d="M5.66182 7.3322L0.441824 7.32309C0.22091 7.3227 0.0415118 7.50147 0.0411262 7.72239L0.000704404 30.8824C0.000318835 31.1033 0.179092 31.2827 0.400006 31.283L5.62 31.2922C5.84091 31.2925 6.02031 31.1138 6.0207 30.8929L6.06112 7.73289C6.0615 7.51198 5.88273 7.33258 5.66182 7.3322Z" fill="black"/>
<path d="M46.3509 26.2476L58.9909 26.2976C59.1703 26.2998 59.3469 26.344 59.506 26.4265C59.6651 26.5091 59.8021 26.6276 59.9057 26.7723C60.0093 26.9169 60.0765 27.0836 60.1018 27.2584C60.127 27.4332 60.1096 27.6112 60.0509 27.7776C59.6909 28.7909 59.6409 29.6609 59.9009 30.3876C59.9377 30.49 59.9489 30.5997 59.9338 30.7076C59.9186 30.8154 59.8775 30.9182 59.8138 31.0073C59.7501 31.0965 59.6658 31.1694 59.5678 31.2199C59.4699 31.2704 59.3612 31.297 59.2509 31.2976H40.3609C40.2865 31.2976 40.2129 31.2832 40.1443 31.2555C40.0757 31.2277 40.0135 31.187 39.9613 31.1358C39.9092 31.0846 39.8682 31.0239 39.8406 30.9572C39.8131 30.8906 39.7996 30.8193 39.8009 30.7476L39.9609 8.23761C39.9622 8.17194 39.9764 8.10717 40.0028 8.04701C40.0291 7.98684 40.067 7.93245 40.1144 7.88694C40.1618 7.84144 40.2176 7.80572 40.2788 7.78181C40.34 7.7579 40.4052 7.74627 40.4709 7.7476L45.3209 7.7976C45.465 7.80022 45.6024 7.85932 45.7034 7.96218C45.8044 8.06505 45.8609 8.20345 45.8609 8.34761L45.8409 25.7376C45.8409 25.8711 45.8944 25.9994 45.9897 26.0947C46.0851 26.1901 46.2148 26.245 46.3509 26.2476Z" fill="black"/>
<path d="M171.771 7.81763H166.311C166.156 7.81763 166.031 7.94299 166.031 8.09763V30.9976C166.031 31.1523 166.156 31.2776 166.311 31.2776H171.771C171.926 31.2776 172.051 31.1523 172.051 30.9976V8.09763C172.051 7.94299 171.926 7.81763 171.771 7.81763Z" fill="black"/>
<path d="M57.2717 13.2361L48.8124 13.3395C48.5197 13.343 48.2853 13.5832 48.2889 13.8759L48.3336 17.5356C48.3372 17.8283 48.5773 18.0627 48.87 18.0591L57.3294 17.9558C57.6221 17.9522 57.8565 17.712 57.8529 17.4193L57.8082 13.7596C57.8046 13.4669 57.5644 13.2325 57.2717 13.2361Z" fill="black"/>
</svg>
